<svg width="18" height="18" viewBox="0 0 18 18" fill="none" xmlns="http://www.w3.org/2000/svg">
<path d="M9 18C13.9235 18 18 13.9235 18 9C18 4.08529 13.9147 0 8.99118 0C4.07647 0 0 4.08529 0 9C0 13.9235 4.08529 18 9 18ZM9 16.5C4.83529 16.5 1.50882 13.1647 1.50882 9C1.50882 4.84412 4.82647 1.5 8.99118 1.5C13.1559 1.5 16.4912 4.84412 16.5 9C16.5088 13.1647 13.1647 16.5 9 16.5ZM8.81471 10.8265C9.26471 10.8265 9.52941 10.5529 9.52941 10.2V10.0941C9.52941 9.6 9.82059 9.29118 10.4294 8.88529C11.2853 8.32059 11.8941 7.8 11.8941 6.75C11.8941 5.27647 10.5882 4.49118 9.09706 4.49118C7.57941 4.49118 6.58235 5.20588 6.33529 6.01765C6.29118 6.16765 6.26471 6.30882 6.26471 6.45882C6.26471 6.84706 6.57353 7.06765 6.86471 7.06765C7.36765 7.06765 7.44706 6.79412 7.72941 6.46765C8.02059 5.98235 8.44412 5.69118 9.03529 5.69118C9.83823 5.69118 10.3676 6.14118 10.3676 6.82059C10.3676 7.42059 9.98824 7.71176 9.22059 8.24118C8.58529 8.68235 8.11765 9.15 8.11765 10.0147V10.1294C8.11765 10.5971 8.36471 10.8265 8.81471 10.8265ZM8.79706 13.4647C9.30882 13.4647 9.75 13.0588 9.75 12.5471C9.75 12.0265 9.31765 11.6294 8.79706 11.6294C8.27647 11.6294 7.84412 12.0353 7.84412 12.5471C7.84412 13.05 8.28529 13.4647 8.79706 13.4647Z" fill="#007AFF"/>
</svg>
