<svg width="39" height="26" viewBox="0 0 39 26" fill="none" xmlns="http://www.w3.org/2000/svg">
<g clip-path="url(#clip0_262_222)">
<path d="M8.44531 3.76273C10.0563 2.97365 11.843 2.62787 13.625 2.75687L13.9814 2.78909C15.6764 2.97236 17.2947 3.58283 18.6914 4.55765C17.6658 5.47047 16.8148 6.56604 16.1816 7.79007L16.0391 8.07523C15.2995 9.60967 14.9159 11.2935 14.917 12.9991C14.9152 14.7057 15.2992 16.3913 16.0391 17.9268C16.6845 19.2662 17.5868 20.4611 18.6914 21.4444C17.3925 22.351 15.9027 22.9433 14.3369 23.169L13.9814 23.2139C12.2007 23.4064 10.4033 23.1216 8.76953 22.3916L8.44531 22.2403C6.83424 21.4511 5.45936 20.2482 4.45801 18.7549L4.2627 18.4522C3.24838 16.8186 2.71005 14.9298 2.70996 13.002C2.70996 11.1945 3.18317 9.42111 4.07812 7.86038L4.2627 7.55081C5.2137 6.01926 6.54692 4.76962 8.12598 3.92581L8.44531 3.76273Z" stroke="#AEAEB2"/>
<path d="M25.0151 2.78485C26.7959 2.59204 28.594 2.87632 30.228 3.60614L30.5522 3.75848C32.2711 4.60022 33.7213 5.91281 34.7358 7.54657C35.7503 9.18022 36.2885 11.0689 36.2886 12.9968V12.9997L36.2827 13.361C36.224 15.043 35.7558 16.6846 34.9204 18.1413L34.7358 18.4509C33.7846 19.9826 32.4509 21.2321 30.8716 22.0759L30.5522 22.239C28.9409 23.028 27.1538 23.3732 25.3716 23.2438L25.0151 23.2116C23.3197 23.028 21.701 22.4177 20.3042 21.4421C21.3296 20.5286 22.1805 19.4329 22.814 18.2087L22.9575 17.9235C23.6974 16.3888 24.0815 14.7047 24.0815 12.9987C24.0815 11.3992 23.7433 9.81896 23.0913 8.36298L22.9575 8.07391C22.3116 6.73418 21.4088 5.53833 20.3042 4.55438C21.6033 3.64712 23.0944 3.05567 24.6606 2.82977L25.0151 2.78485Z" stroke="#AEAEB2"/>
</g>
<defs>
<clipPath id="clip0_262_222">
<rect width="39" height="26" fill="white"/>
</clipPath>
</defs>
</svg>
