<svg width="39" height="26" viewBox="0 0 39 26" fill="none" xmlns="http://www.w3.org/2000/svg">
<g clip-path="url(#clip0_262_210)">
<path d="M24.6454 4.5298H14.3574V21.4672H24.6454V4.5298Z" fill="#FF5F00"/>
<path d="M15.4172 13C15.4159 11.3691 15.7827 9.75923 16.4898 8.2923C17.1969 6.82536 18.2257 5.53976 19.4985 4.5328C17.9221 3.28403 16.029 2.50749 14.0354 2.29194C12.0419 2.07639 10.0284 2.43052 8.2251 3.31386C6.42179 4.1972 4.90141 5.57411 3.83772 7.28722C2.77404 9.00033 2.20996 10.9805 2.20996 13.0015C2.20996 15.0225 2.77404 17.0027 3.83772 18.7158C4.90141 20.4289 6.42179 21.8058 8.2251 22.6891C10.0284 23.5725 12.0419 23.9266 14.0354 23.7111C16.029 23.4955 17.9221 22.719 19.4985 21.4702C18.2253 20.4629 17.1962 19.1769 16.4891 17.7094C15.782 16.2419 15.4154 14.6314 15.4172 13Z" fill="#EB001B"/>
<path d="M35.7676 19.675V19.328H35.916V19.2562H35.5627V19.328H35.7023V19.675H35.7676ZM36.4532 19.675V19.2562H36.3464L36.2217 19.5554L36.097 19.2562H35.9902V19.675H36.0673V19.3579L36.1831 19.6302H36.2633L36.379 19.3579V19.675H36.4532Z" fill="#F79E1B"/>
<path d="M36.7887 13C36.7886 15.0211 36.2244 17.0014 35.1605 18.7146C34.0967 20.4278 32.5761 21.8047 30.7725 22.6879C28.969 23.5711 26.9553 23.925 24.9617 23.7091C22.968 23.4933 21.0748 22.7164 19.4985 21.4672C20.7708 20.4594 21.7994 19.1734 22.5067 17.7064C23.214 16.2394 23.5815 14.6296 23.5815 12.9985C23.5815 11.3674 23.214 9.75765 22.5067 8.29063C21.7994 6.82361 20.7708 5.53766 19.4985 4.5298C21.0748 3.28064 22.968 2.50372 24.9617 2.28786C26.9553 2.072 28.969 2.42591 30.7725 3.30912C32.5761 4.19234 34.0967 5.56922 35.1605 7.28239C36.2244 8.99556 36.7886 10.9759 36.7887 12.997V13Z" fill="#F79E1B"/>
</g>
<defs>
<clipPath id="clip0_262_210">
<rect width="39" height="26" fill="white"/>
</clipPath>
</defs>
</svg>
