<svg width="20" height="25" viewBox="0 0 20 25" fill="none" xmlns="http://www.w3.org/2000/svg">
<path d="M10.0056 16.327C10.4901 16.327 10.8958 15.9282 10.8958 15.463V4.08728L10.8282 2.42579L11.5831 3.21223L13.2958 5.00665C13.4535 5.18387 13.6901 5.27249 13.9042 5.27249C14.3662 5.27249 14.7268 4.94019 14.7268 4.48604C14.7268 4.25343 14.6254 4.07621 14.4563 3.91006L10.6479 0.29907C10.4225 0.0775366 10.231 0 10.0056 0C9.76901 0 9.57747 0.0775366 9.35211 0.29907L5.54366 3.91006C5.37465 4.07621 5.27324 4.25343 5.27324 4.48604C5.27324 4.94019 5.61127 5.27249 6.08451 5.27249C6.29859 5.27249 6.54648 5.18387 6.70423 5.00665L8.4169 3.21223L9.17183 2.42579L9.10423 4.08728V15.463C9.10423 15.9282 9.52113 16.327 10.0056 16.327ZM3.53803 25H16.462C18.8169 25 20 23.848 20 21.5662V10.5117C20 8.22995 18.8169 7.07798 16.462 7.07798H13.3183V8.86132H16.4282C17.5437 8.86132 18.1859 9.45946 18.1859 10.6114V21.4665C18.1859 22.6185 17.5437 23.2167 16.4282 23.2167H3.56056C2.4338 23.2167 1.81408 22.6185 1.81408 21.4665V10.6114C1.81408 9.45946 2.4338 8.86132 3.56056 8.86132H6.68169V7.07798H3.53803C1.1831 7.07798 0 8.22995 0 10.5117V21.5662C0 23.848 1.1831 25 3.53803 25Z" fill="#007AFF"/>
</svg>
